<svg width="120" height="40" viewBox="0 0 120 40" fill="none" xmlns="http://www.w3.org/2000/svg">
<g filter="url(#filter0_dd_115_588)">
<circle cx="20" cy="16" r="16" fill="#48C95F"/>
<path d="M26.3415 9.65001C24.761 8.07501 22.6537 7.20001 20.4293 7.20001C15.8049 7.20001 12.0585 10.9333 12.0585 15.5417C12.0585 17 12.4683 18.4583 13.1707 19.6833L12 24L16.4488 22.8333C17.678 23.475 19.0244 23.825 20.4293 23.825C25.0537 23.825 28.8 20.0917 28.8 15.4833C28.7415 13.325 27.9219 11.225 26.3415 9.65001ZM24.4683 18.5167C24.2927 18.9833 23.4732 19.45 23.0634 19.5083C22.7122 19.5667 22.2439 19.5667 21.7756 19.45C21.4829 19.3333 21.0732 19.2167 20.6049 18.9833C18.4976 18.1083 17.1512 16.0083 17.0341 15.8333C16.9171 15.7167 16.1561 14.725 16.1561 13.675C16.1561 12.625 16.6829 12.1583 16.8585 11.925C17.0341 11.6917 17.2683 11.6917 17.4439 11.6917C17.561 11.6917 17.7366 11.6917 17.8537 11.6917C17.9707 11.6917 18.1463 11.6333 18.3219 12.0417C18.4976 12.45 18.9073 13.5 18.9659 13.5583C19.0244 13.675 19.0244 13.7917 18.9659 13.9083C18.9073 14.025 18.8488 14.1417 18.7317 14.2583C18.6146 14.375 18.4976 14.55 18.439 14.6083C18.3219 14.725 18.2049 14.8417 18.3219 15.0167C18.439 15.25 18.8488 15.8917 19.4927 16.475C20.3122 17.175 20.9561 17.4083 21.1902 17.525C21.4244 17.6417 21.5415 17.5833 21.6585 17.4667C21.7756 17.35 22.1854 16.8833 22.3024 16.65C22.4195 16.4167 22.5951 16.475 22.7707 16.5333C22.9463 16.5917 24 17.1167 24.1756 17.2333C24.4098 17.35 24.5268 17.4083 24.5854 17.4667C24.6439 17.6417 24.6439 18.05 24.4683 18.5167Z" fill="white"/>
<circle cx="60" cy="16" r="16" fill="url(#paint0_linear_115_588)"/>
<path d="M65.2646 9.60001H55.5354C54.4369 9.60001 53.6 10.4369 53.6 11.5354V21.2646C53.6 22.3631 54.4369 23.2 55.5354 23.2H65.2646C66.3631 23.2 67.2 22.3631 67.2 21.2646V11.5354C67.2 10.4369 66.3631 9.60001 65.2646 9.60001ZM60.4 20.48C62.6492 20.48 64.48 18.7015 64.48 16.5569C64.48 16.1908 64.4277 15.7723 64.3231 15.4585H65.4739V21.0031C65.4739 21.2646 65.2646 21.5262 64.9508 21.5262H55.8492C55.5877 21.5262 55.3262 21.3169 55.3262 21.0031V15.4062H56.5292C56.4246 15.7723 56.3723 16.1385 56.3723 16.5046C56.32 18.7015 58.1508 20.48 60.4 20.48ZM60.4 18.9108C58.9354 18.9108 57.7846 17.76 57.7846 16.3477C57.7846 14.9354 58.9354 13.7846 60.4 13.7846C61.8646 13.7846 63.0154 14.9354 63.0154 16.3477C63.0154 17.8123 61.8646 18.9108 60.4 18.9108ZM65.4215 13.3139C65.4215 13.6277 65.16 13.8892 64.8462 13.8892H63.3815C63.0677 13.8892 62.8062 13.6277 62.8062 13.3139V11.9015C62.8062 11.5877 63.0677 11.3262 63.3815 11.3262H64.8462C65.16 11.3262 65.4215 11.5877 65.4215 11.9015V13.3139Z" fill="white"/>
<circle cx="100" cy="16" r="16" fill="#F40000"/>
<path d="M106.97 15.1305C106.97 14.8202 106.919 14.4582 106.919 14.0445C106.867 13.6307 106.815 13.217 106.764 12.855C106.66 12.4412 106.505 12.1309 106.195 11.8723C105.936 11.6138 105.574 11.4586 105.212 11.4069C104.023 11.2517 102.264 11.2 99.8852 11.2C97.5063 11.2 95.6961 11.2517 94.5584 11.4069C94.1963 11.4586 93.8343 11.6138 93.5757 11.8723C93.3172 12.1309 93.1103 12.4412 93.0069 12.855C92.9034 13.217 92.8517 13.579 92.8517 14.0445C92.8 14.4582 92.8 14.8202 92.8 15.1305C92.8 15.4408 92.8 15.8028 92.8 16.32C92.8 16.8372 92.8 17.2509 92.8 17.5095C92.8 17.8198 92.8517 18.1818 92.8517 18.5956C92.9034 19.0093 92.9551 19.423 93.0069 19.7851C93.1103 20.1988 93.2654 20.5091 93.5757 20.7677C93.8343 21.0263 94.1963 21.1814 94.5584 21.2331C95.7479 21.3883 97.5063 21.44 99.8852 21.44C102.264 21.44 104.074 21.3883 105.212 21.2331C105.574 21.1814 105.936 21.0263 106.195 20.7677C106.453 20.5091 106.66 20.1988 106.764 19.7851C106.867 19.423 106.919 19.061 106.919 18.5956C106.971 18.1818 106.97 17.8198 106.97 17.5095C106.97 17.1992 106.97 16.8372 106.97 16.32C106.97 15.8028 106.97 15.3891 106.97 15.1305ZM102.626 16.7337L98.5406 19.2679C98.4889 19.3196 98.3854 19.3713 98.282 19.3713C98.1786 19.3713 98.1269 19.3713 98.0234 19.3196C97.8683 19.2162 97.7648 19.061 97.7648 18.8542V13.7342C97.7648 13.5273 97.8683 13.3721 98.0234 13.2687C98.1786 13.1653 98.3854 13.1653 98.5406 13.2687L102.626 15.8028C102.781 15.9063 102.885 16.0614 102.885 16.2166C102.885 16.3717 102.781 16.6303 102.626 16.7337Z" fill="white"/>
</g>
<defs>
<filter id="filter0_dd_115_588" x="0" y="0" width="120" height="40" filterUnits="userSpaceOnUse" color-interpolation-filters="sRGB">
<feFlood flood-opacity="0" result="BackgroundImageFix"/>
<feColorMatrix in="SourceAlpha" type="matrix" values="0 0 0 0 0 0 0 0 0 0 0 0 0 0 0 0 0 0 127 0" result="hardAlpha"/>
<feOffset dy="4"/>
<feGaussianBlur stdDeviation="2"/>
<feComposite in2="hardAlpha" operator="out"/>
<feColorMatrix type="matrix" values="0 0 0 0 0 0 0 0 0 0 0 0 0 0 0 0 0 0 0.25 0"/>
<feBlend mode="normal" in2="BackgroundImageFix" result="effect1_dropShadow_115_588"/>
<feColorMatrix in="SourceAlpha" type="matrix" values="0 0 0 0 0 0 0 0 0 0 0 0 0 0 0 0 0 0 127 0" result="hardAlpha"/>
<feOffset dy="4"/>
<feGaussianBlur stdDeviation="2"/>
<feComposite in2="hardAlpha" operator="out"/>
<feColorMatrix type="matrix" values="0 0 0 0 0 0 0 0 0 0 0 0 0 0 0 0 0 0 0.25 0"/>
<feBlend mode="normal" in2="effect1_dropShadow_115_588" result="effect2_dropShadow_115_588"/>
<feBlend mode="normal" in="SourceGraphic" in2="effect2_dropShadow_115_588" result="shape"/>
</filter>
<linearGradient id="paint0_linear_115_588" x1="50.8" y1="28.4" x2="72" y2="6.4" gradientUnits="userSpaceOnUse">
<stop stop-color="#EEA054"/>
<stop offset="0.502762" stop-color="#D64763"/>
<stop offset="1" stop-color="#B62A99"/>
</linearGradient>
</defs>
</svg>
